<svg xmlns="http://www.w3.org/2000/svg" viewBox="0 0 400 420" fill="none">
  <defs>
    <linearGradient id="bgDuo" x1="0%" y1="0%" x2="0%" y2="100%">
      <stop offset="0%" stop-color="#1540E5"/>
      <stop offset="100%" stop-color="#0029FF"/>
    </linearGradient>
    <linearGradient id="jacketDuoA" x1="0%" y1="0%" x2="0%" y2="100%">
      <stop offset="0%" stop-color="#2B6BE0"/>
      <stop offset="100%" stop-color="#1A4BB5"/>
    </linearGradient>
    <linearGradient id="jacketDuoB" x1="0%" y1="0%" x2="0%" y2="100%">
      <stop offset="0%" stop-color="#3A85F2"/>
      <stop offset="100%" stop-color="#2457C2"/>
    </linearGradient>
    <linearGradient id="hairDuo" x1="0%" y1="0%" x2="0%" y2="100%">
      <stop offset="0%" stop-color="#2A0F08"/>
      <stop offset="100%" stop-color="#000000"/>
    </linearGradient>
    <radialGradient id="spotDuo" cx="50%" cy="55%" r="60%">
      <stop offset="0%" stop-color="#FFD500" stop-opacity="0.35"/>
      <stop offset="100%" stop-color="#0029FF" stop-opacity="0"/>
    </radialGradient>
    <linearGradient id="phoneDuo" x1="0%" y1="0%" x2="0%" y2="100%">
      <stop offset="0%" stop-color="#1A1A1A"/>
      <stop offset="100%" stop-color="#000000"/>
    </linearGradient>
  </defs>

  <!-- fundo com glow -->
  <rect width="400" height="420" fill="url(#bgDuo)"/>
  <ellipse cx="200" cy="240" rx="200" ry="190" fill="url(#spotDuo)"/>

  <!-- MULHER DA ESQUERDA -->
  <g transform="translate(0,0)">
    <!-- cabelo traseiro -->
    <path d="M70 180 Q55 260 65 380 Q78 430 100 430 L160 430 Q178 400 180 350 Q184 260 170 190 Z" fill="url(#hairDuo)"/>
    <!-- pescoço -->
    <path d="M108 220 L108 250 Q120 260 135 250 L135 220 Z" fill="#8B5A3C"/>
    <!-- jaqueta -->
    <path d="M60 260 Q52 340 62 420 L182 420 Q192 340 180 260 Q160 238 140 236 L100 236 Q80 238 60 260 Z" fill="url(#jacketDuoA)"/>
    <!-- rosto -->
    <ellipse cx="122" cy="180" rx="48" ry="54" fill="#9D6A4B"/>
    <!-- cabelo frontal -->
    <path d="M78 150 Q82 110 122 103 Q162 100 170 145 Q172 165 168 180 Q160 160 125 158 Q90 160 78 180 Z" fill="url(#hairDuo)"/>
    <!-- cabelo lateral esq -->
    <path d="M78 150 Q70 220 72 300 L80 240 Q82 180 92 160 Z" fill="url(#hairDuo)"/>
    <!-- sobrancelhas -->
    <path d="M96 170 Q107 166 118 170" stroke="#1A0A05" stroke-width="2.2" fill="none" stroke-linecap="round"/>
    <path d="M128 170 Q140 166 148 170" stroke="#1A0A05" stroke-width="2.2" fill="none" stroke-linecap="round"/>
    <!-- olhos -->
    <ellipse cx="104" cy="184" rx="4.5" ry="5.5" fill="#FFFFFF"/>
    <ellipse cx="140" cy="184" rx="4.5" ry="5.5" fill="#FFFFFF"/>
    <circle cx="104" cy="185" r="3" fill="#1A0A05"/>
    <circle cx="140" cy="185" r="3" fill="#1A0A05"/>
    <!-- nariz -->
    <path d="M121 196 Q119 210 122 216" stroke="#6B4530" stroke-width="1.5" fill="none" stroke-linecap="round"/>
    <!-- boca sorrindo aberta -->
    <ellipse cx="122" cy="222" rx="11" ry="8" fill="#3A1A1A"/>
    <path d="M114 219 L130 219" stroke="#FFFFFF" stroke-width="2" stroke-linecap="round"/>
    <!-- blush -->
    <ellipse cx="94" cy="206" rx="8" ry="4" fill="#D4715A" opacity="0.45"/>
    <ellipse cx="150" cy="206" rx="8" ry="4" fill="#D4715A" opacity="0.45"/>
  </g>

  <!-- MULHER DA DIREITA -->
  <g transform="translate(160,10)">
    <!-- cabelo traseiro -->
    <path d="M70 180 Q55 260 65 380 Q78 430 100 430 L170 430 Q188 400 190 350 Q194 260 180 190 Z" fill="url(#hairDuo)"/>
    <!-- pescoço -->
    <path d="M112 220 L112 250 Q124 260 139 250 L139 220 Z" fill="#8B5A3C"/>
    <!-- jaqueta -->
    <path d="M60 260 Q52 340 62 420 L190 420 Q200 340 190 260 Q168 238 148 236 L104 236 Q80 238 60 260 Z" fill="url(#jacketDuoB)"/>
    <!-- rosto -->
    <ellipse cx="126" cy="180" rx="48" ry="54" fill="#A77454"/>
    <!-- cabelo frontal -->
    <path d="M82 150 Q86 110 126 103 Q166 100 174 145 Q176 165 172 180 Q164 160 129 158 Q94 160 82 180 Z" fill="url(#hairDuo)"/>
    <!-- sobrancelhas -->
    <path d="M100 170 Q111 166 122 170" stroke="#1A0A05" stroke-width="2.2" fill="none" stroke-linecap="round"/>
    <path d="M132 170 Q144 166 152 170" stroke="#1A0A05" stroke-width="2.2" fill="none" stroke-linecap="round"/>
    <!-- olhos -->
    <ellipse cx="108" cy="184" rx="4.5" ry="5.5" fill="#FFFFFF"/>
    <ellipse cx="144" cy="184" rx="4.5" ry="5.5" fill="#FFFFFF"/>
    <circle cx="108" cy="185" r="3" fill="#1A0A05"/>
    <circle cx="144" cy="185" r="3" fill="#1A0A05"/>
    <!-- nariz -->
    <path d="M125 196 Q123 210 126 216" stroke="#6B4530" stroke-width="1.5" fill="none" stroke-linecap="round"/>
    <!-- boca aberta sorrindo -->
    <ellipse cx="126" cy="222" rx="11" ry="8" fill="#3A1A1A"/>
    <path d="M118 219 L134 219" stroke="#FFFFFF" stroke-width="2" stroke-linecap="round"/>
    <!-- blush -->
    <ellipse cx="98" cy="206" rx="8" ry="4" fill="#D4715A" opacity="0.45"/>
    <ellipse cx="154" cy="206" rx="8" ry="4" fill="#D4715A" opacity="0.45"/>

    <!-- Celular na mão -->
    <rect x="60" y="300" width="58" height="100" rx="10" fill="url(#phoneDuo)" transform="rotate(-10 89 350)"/>
    <rect x="66" y="306" width="46" height="82" rx="4" fill="#00E676" transform="rotate(-10 89 350)"/>
  </g>

  <!-- Badge WhatsApp -->
  <g transform="translate(270,260)">
    <circle cx="40" cy="40" r="42" fill="#FFFFFF"/>
    <circle cx="40" cy="40" r="36" fill="#25D366"/>
    <path d="M40 18 C27.3 18 17 28.3 17 41 C17 45.2 18.1 49.2 20.1 52.7 L17 62 L26.6 59 C30 60.9 33.9 62 38 62 L40 62 C52.7 62 63 51.7 63 39 C63 26.3 52.7 16 40 16 Z M40 58 C36.4 58 32.9 57 29.9 55.2 L29 54.7 L23.6 56.3 L25.2 51.1 L24.7 50.2 C22.7 47 21.6 43.4 21.6 39.6 C21.6 28.9 30.4 20.2 41 20.2 C51.7 20.2 60.4 28.9 60.4 39.6 C60.4 50.2 51.7 58 40 58 Z" fill="#FFFFFF"/>
    <path d="M52.4 45.9 L47.8 44 C47.3 43.8 46.7 43.9 46.3 44.4 L44.6 46.2 C43.9 47 42.8 47.1 41.9 46.6 C39.3 45.2 36.9 43.1 35.1 40.6 C34.5 39.8 34.5 38.7 35.1 37.9 L36.5 36.1 C36.9 35.6 37 34.9 36.8 34.3 L35 29.8 C34.6 28.9 33.5 28.6 32.7 29.2 L30.3 30.9 C29.5 31.5 29.1 32.5 29.3 33.5 C30.2 38.1 32.5 42.3 35.9 45.6 C39.3 48.9 43.5 51.1 48.1 51.9 C49.1 52.1 50.1 51.7 50.6 50.8 L52.2 48.3 C52.7 47.4 52.3 46.3 52.4 45.9 Z" fill="#FFFFFF"/>
  </g>
</svg>
