<svg xmlns="http://www.w3.org/2000/svg" viewBox="0 0 260 64" fill="none">
  <!-- Ícone quadrados pontilhados (grid 4x4 estilizado) -->
  <g fill="#EC1B2E">
    <rect x="4" y="8" width="8" height="8" rx="1.5"/>
    <rect x="16" y="8" width="8" height="8" rx="1.5"/>
    <rect x="28" y="8" width="8" height="8" rx="1.5"/>

    <rect x="4" y="20" width="8" height="8" rx="1.5"/>
    <rect x="16" y="20" width="8" height="8" rx="1.5"/>
    <rect x="28" y="20" width="8" height="8" rx="1.5"/>

    <rect x="4" y="32" width="8" height="8" rx="1.5"/>
    <rect x="16" y="32" width="8" height="8" rx="1.5"/>
    <rect x="28" y="32" width="8" height="8" rx="1.5"/>

    <rect x="4" y="44" width="8" height="8" rx="1.5"/>
    <rect x="16" y="44" width="8" height="8" rx="1.5"/>
    <rect x="28" y="44" width="8" height="8" rx="1.5"/>
  </g>

  <!-- Texto TIM -->
  <text x="52" y="42" font-family="Arial Black, Helvetica, sans-serif" font-weight="900" font-size="32" fill="#FFFFFF" letter-spacing="-1">TIM</text>

  <!-- Texto Recarga -->
  <text x="122" y="42" font-family="Arial, Helvetica, sans-serif" font-weight="700" font-size="28" fill="#FFFFFF">Recarga</text>
</svg>
