<svg xmlns="http://www.w3.org/2000/svg" viewBox="0 0 48 48" fill="none">
  <g fill="#EC1B2E">
    <rect x="4" y="4" width="8" height="8" rx="1.5"/>
    <rect x="16" y="4" width="8" height="8" rx="1.5"/>
    <rect x="28" y="4" width="8" height="8" rx="1.5"/>

    <rect x="4" y="16" width="8" height="8" rx="1.5"/>
    <rect x="16" y="16" width="8" height="8" rx="1.5"/>
    <rect x="28" y="16" width="8" height="8" rx="1.5"/>

    <rect x="4" y="28" width="8" height="8" rx="1.5"/>
    <rect x="16" y="28" width="8" height="8" rx="1.5"/>
    <rect x="28" y="28" width="8" height="8" rx="1.5"/>

    <rect x="4" y="40" width="8" height="8" rx="1.5"/>
    <rect x="16" y="40" width="8" height="8" rx="1.5"/>
    <rect x="28" y="40" width="8" height="8" rx="1.5"/>
  </g>
</svg>
